<svg
    width="18"
    height="18"
    viewBox="0 0 18 18"
    fill="none"
    stroke-width="2"
    xmlns="http://www.w3.org/2000/svg"
    stroke="currentColor"
>
    <path
        d="M9.75 3.75H15.75"
        stroke-linecap="round"
        stroke-linejoin="round"
    />
    <path
        d="M9.75 6.75H13.5"
        stroke-linecap="round"
        stroke-linejoin="round"
    />
    <path
        d="M9.75 11.25H15.75"
        stroke-linecap="round"
        stroke-linejoin="round"
    />
    <path
        d="M9.75 14.25H13.5"
        stroke-linecap="round"
        stroke-linejoin="round"
    />
    <path
        d="M6 3H3C2.58579 3 2.25 3.33579 2.25 3.75V6.75C2.25 7.16421 2.58579 7.5 3 7.5H6C6.41421 7.5 6.75 7.16421 6.75 6.75V3.75C6.75 3.33579 6.41421 3 6 3Z"
        stroke-linecap="round"
        stroke-linejoin="round"
    />
    <path
        d="M6 10.5H3C2.58579 10.5 2.25 10.8358 2.25 11.25V14.25C2.25 14.6642 2.58579 15 3 15H6C6.41421 15 6.75 14.6642 6.75 14.25V11.25C6.75 10.8358 6.41421 10.5 6 10.5Z"
        stroke-linecap="round"
        stroke-linejoin="round"
    />
</svg>