<svg
    width="18"
    height="18"
    viewBox="0 0 24 24"
    fill="none"
    xmlns="http://www.w3.org/2000/svg"
    stroke="currentColor"
>
    <path
        d="M9.5 6C10.0523 6 10.5 5.55228 10.5 5C10.5 4.44772 10.0523 4 9.5 4C8.94772 4 8.5 4.44772 8.5 5C8.5 5.55228 8.94772 6 9.5 6Z"
        stroke="#5E5E5E"
        stroke-width="2"
        stroke-linecap="round"
        stroke-linejoin="round"
    />
    <path
        d="M9.5 13C10.0523 13 10.5 12.5523 10.5 12C10.5 11.4477 10.0523 11 9.5 11C8.94772 11 8.5 11.4477 8.5 12C8.5 12.5523 8.94772 13 9.5 13Z"
        stroke="#5E5E5E"
        stroke-width="2"
        stroke-linecap="round"
        stroke-linejoin="round"
    />
    <path
        d="M9.5 20C10.0523 20 10.5 19.5523 10.5 19C10.5 18.4477 10.0523 18 9.5 18C8.94772 18 8.5 18.4477 8.5 19C8.5 19.5523 8.94772 20 9.5 20Z"
        stroke="#5D5D5D"
        stroke-width="2"
        stroke-linecap="round"
        stroke-linejoin="round"
    />
    <path
        d="M15.5 6C16.0523 6 16.5 5.55228 16.5 5C16.5 4.44772 16.0523 4 15.5 4C14.9477 4 14.5 4.44772 14.5 5C14.5 5.55228 14.9477 6 15.5 6Z"
        stroke="#5D5D5D"
        stroke-width="2"
        stroke-linecap="round"
        stroke-linejoin="round"
    />
    <path
        d="M15.5 13C16.0523 13 16.5 12.5523 16.5 12C16.5 11.4477 16.0523 11 15.5 11C14.9477 11 14.5 11.4477 14.5 12C14.5 12.5523 14.9477 13 15.5 13Z"
        stroke="#5D5D5D"
        stroke-width="2"
        stroke-linecap="round"
        stroke-linejoin="round"
    />
    <path
        d="M15.5 20C16.0523 20 16.5 19.5523 16.5 19C16.5 18.4477 16.0523 18 15.5 18C14.9477 18 14.5 18.4477 14.5 19C14.5 19.5523 14.9477 20 15.5 20Z"
        stroke="#5D5D5D"
        stroke-width="2"
        stroke-linecap="round"
        stroke-linejoin="round"
    />
</svg>