<svg
    width="18"
    height="18"
    viewBox="0 0 18 18"
    fill="none"
    xmlns="http://www.w3.org/2000/svg"
    stroke="currentColor"
>
    <path
        d="M8.99996 2.25002C9.09896 2.25002 9.19721 2.25002 9.29471 2.25002C8.33121 3.1453 7.7119 4.3499 7.54443 5.65443C7.37695 6.95897 7.6719 8.28094 8.37801 9.39057C9.08412 10.5002 10.1567 11.3273 11.4094 11.7281C12.6621 12.1289 14.0156 12.0781 15.2347 11.5845C14.7658 12.7129 13.9993 13.6928 13.0171 14.4197C12.0349 15.1466 10.8738 15.5933 9.65764 15.7121C8.44149 15.8308 7.2159 15.6172 6.11163 15.0941C5.00735 14.5709 4.06579 13.7578 3.3874 12.7415C2.70901 11.7251 2.31922 10.5437 2.25962 9.32325C2.20002 8.10276 2.47284 6.88899 3.04899 5.8114C3.62513 4.73382 4.48298 3.83284 5.53103 3.20457C6.57908 2.5763 7.77802 2.24431 8.99996 2.24402V2.25002Z"
        stroke-width="2"
        stroke-linecap="round"
        stroke-linejoin="round"
    />
</svg>